<?xml version="1.0" encoding="UTF-8" standalone="no"?>
<svg
   xmlns:dc="http://purl.org/dc/elements/1.1/"
   xmlns:cc="http://creativecommons.org/ns#"
   xmlns:rdf="http://www.w3.org/1999/02/22-rdf-syntax-ns#"
   xmlns:svg="http://www.w3.org/2000/svg"
   xmlns="http://www.w3.org/2000/svg"
   xmlns:sodipodi="http://sodipodi.sourceforge.net/DTD/sodipodi-0.dtd"
   xmlns:inkscape="http://www.inkscape.org/namespaces/inkscape"
   width="139"
   height="53"
   viewBox="0 0 139 53"
   fill="none"
   version="1.1"
   id="svg24"
   sodipodi:docname="logo.svg"
   inkscape:version="0.92.5 (2060ec1f9f, 2020-04-08)">
  <metadata
     id="metadata30">
    <rdf:RDF>
      <cc:Work
         rdf:about="">
        <dc:format>image/svg+xml</dc:format>
        <dc:type
           rdf:resource="http://purl.org/dc/dcmitype/StillImage" />
      </cc:Work>
    </rdf:RDF>
  </metadata>
  <defs
     id="defs28" />
  <sodipodi:namedview
     pagecolor="#ffffff"
     bordercolor="#666666"
     borderopacity="1"
     objecttolerance="10"
     gridtolerance="10"
     guidetolerance="10"
     inkscape:pageopacity="0"
     inkscape:pageshadow="2"
     inkscape:window-width="1920"
     inkscape:window-height="1018"
     id="namedview26"
     showgrid="false"
     inkscape:zoom="15.871749"
     inkscape:cx="107.16172"
     inkscape:cy="17.810484"
     inkscape:window-x="0"
     inkscape:window-y="28"
     inkscape:window-maximized="1"
     inkscape:current-layer="svg24" />
  <g
     id="g49"
     inkscape:label="Letters"
     transform="translate(0,-0.18901509)">
    <path
       inkscape:label="letter-T"
       style="display:inline;fill:#000000"
       inkscape:connector-curvature="0"
       id="path4"
       d="m 129.606,31.3135 v -0.0629 h 4.911 v 3.7781 h -2.456 V 47.3292 H 127.15 V 35.0287 h -2.456 v -3.7781 h 4.912 z" />
    <g
       inkscape:label="letter-A"
       id="g38">
      <path
         d="m 122.73,39.7676 h -9.823 v 3.778 h 9.823 z"
         id="path6"
         inkscape:connector-curvature="0"
         style="display:inline;fill:#000000"
         inkscape:label="letter-A.6" />
      <path
         d="m 116.836,35.5571 h -3.929 v 11.7773 h 3.929 z"
         id="path8"
         inkscape:connector-curvature="0"
         style="display:inline;fill:#000000"
         inkscape:label="letter-A.5" />
      <path
         style="fill:#000000"
         inkscape:connector-curvature="0"
         d="m 122.731,31.2451 h -5.339 v 3.778 h 5.339 z"
         id="path10"
         inkscape:label="letter-A.4" />
      <path
         d="m 122.73,31.2451 h -3.929 v 16.0786 h 3.929 z"
         id="path12"
         inkscape:connector-curvature="0"
         style="display:inline;fill:#000000"
         inkscape:label="letter-A.3" />
      <path
         d="m 121.842,35.0231 c -0.274,-2.1283 -2.164,-3.778 -4.451,-3.778 -2.475,0 -4.484,1.9321 -4.484,4.312 0,2.199 1.716,4.0158 3.929,4.2791 v -4.8131 z"
         id="path14"
         inkscape:connector-curvature="0"
         style="clip-rule:evenodd;display:inline;fill:#000000;fill-rule:evenodd"
         inkscape:label="letter-A.2" />
      <path
         d="m 117.818,35.0235 v -0.0909 h -1.076 v 1.0349 h 0.094 c 0,-0.5209 0.44,-0.944 0.982,-0.944 0,0 0,0 0,0 z"
         id="path16"
         inkscape:connector-curvature="0"
         style="clip-rule:evenodd;display:inline;fill:#000000;fill-rule:evenodd"
         inkscape:label="letter-A.1" />
    </g>
    <path
       inkscape:label="letter-K"
       style="display:inline;fill:#000000"
       inkscape:connector-curvature="0"
       id="path18"
       d="m 105.333,35.0158 v -3.7644 h -3.929 V 47.33 h 3.929 v -3.7645 l 1.73,3.7645 h 3.929 l -3.695,-8.0394 3.695,-8.0392 h -3.929 z" />
  </g>
  <g
     id="g53"
     inkscape:label="Key">
    <path
       inkscape:label="key-2"
       style="display:inline;fill:#000000"
       inkscape:connector-curvature="0"
       id="path2"
       d="M 43.8558,32.3951 33.8612,31.4427 25.855,42.1578 19.7254,40.8633 24.5716,30.5575 11.482,29.308 11.4268,26.392 h 34.8315 z m 0,-11.9515 -9.9946,0.9524 -8.0062,-10.7152 -6.1296,1.2946 4.8462,10.3058 -13.0896,1.2495 -0.0552,2.8613 h 34.8315 z" />
    <path
       inkscape:label="key-1"
       style="clip-rule:evenodd;display:inline;fill:#000000;fill-rule:evenodd"
       inkscape:connector-curvature="0"
       id="path20"
       d="M 54.7312,21.4903 V 19.2671 H 49.751 C 49.0013,17.1124 47.9211,15.1029 46.5683,13.2942 L 49.406,10.5657 44.157,5.51878 41.3372,8.23007 C 38.4273,6.18897 35.0091,4.77841 31.3008,4.20822 V 0.398453 H 23.8776 V 4.20822 C 20.224,4.76996 16.852,6.14759 13.9703,8.14024 L 11.0214,5.30498 5.77246,10.3519 8.70358,13.1702 C 6.58082,15.9681 5.11383,19.2547 4.52064,22.8205 H 0.447266 V 29.958 H 4.52064 c 0.59319,3.5656 2.06018,6.8522 4.18294,9.6503 l -2.93112,2.8181 5.24894,5.0471 2.9489,-2.8353 c 2.8817,1.9927 6.2537,3.3703 9.9073,3.932 v 4.0236 h 7.4232 v -4.0236 c 3.7083,-0.5701 7.1265,-1.9807 10.0364,-4.0218 l 2.8198,2.7113 5.249,-5.0471 -2.8377,-2.7283 c 1.3528,-1.8087 2.433,-3.8182 3.1827,-5.973 h 4.9802 V 31.288 h 83.7348 v -9.7977 z m -43.2857,4.8989 c 0,-8.5671 7.2339,-15.5227 16.1438,-15.5227 8.9099,0 16.1436,6.9556 16.1436,15.5227 0,8.5672 -7.2337,15.5226 -16.1436,15.5226 -8.9099,0 -16.1438,-6.9554 -16.1438,-15.5226 z M 4.52835,29.958 v -3.5688 -3.5687 l 3.4585,1.7844 3.45865,1.7843 -3.45865,1.7844 3.45865,-1.7844 z" />
  </g>
  <path
     fill-rule="evenodd"
     clip-rule="evenodd"
     d="M94.1562 16.5832V17.1812C94.1562 17.5177 94.0712 17.7987 93.9012 18.0241C93.7313 18.2497 93.5087 18.4098 93.2334 18.5045C92.9582 18.5992 92.6337 18.6466 92.2599 18.6466C91.8861 18.6466 91.5616 18.5992 91.2864 18.5045C91.0111 18.4098 90.7885 18.2497 90.6186 18.0241C90.4486 17.7987 90.3636 17.5145 90.3636 17.1714V16.5931C90.3636 16.0996 90.5395 15.7303 90.8913 15.4853C91.243 15.2402 91.6992 15.1177 92.2599 15.1177C92.8206 15.1177 93.2767 15.2402 93.6284 15.4853C93.9803 15.7303 94.1562 16.0963 94.1562 16.5832ZM91.7401 16.4901V17.2743C91.7401 17.4082 91.7867 17.5111 91.8801 17.5831C91.9736 17.6549 92.1002 17.6909 92.2599 17.6909C92.4196 17.6909 92.5462 17.6541 92.6397 17.5807C92.733 17.5071 92.7797 17.4034 92.7797 17.2695V16.495C92.7797 16.361 92.733 16.2573 92.6397 16.1837C92.5462 16.1103 92.4196 16.0736 92.2599 16.0736C92.1002 16.0736 91.9736 16.1095 91.8801 16.1813C91.7867 16.2532 91.7401 16.3561 91.7401 16.4901ZM96.1848 16.1175V16.4558H97.1024C97.5577 16.4558 97.9103 16.5497 98.16 16.7375C98.4098 16.9255 98.5347 17.1861 98.5347 17.5193C98.5347 17.8526 98.409 18.1157 98.1575 18.3085C97.9061 18.5012 97.5526 18.5976 97.0972 18.5976H94.9972C94.9598 18.5976 94.9275 18.5846 94.9003 18.5585C94.8731 18.5323 94.8595 18.5012 94.8595 18.4654V15.2991C94.8595 15.2632 94.8731 15.2322 94.9003 15.2059C94.9275 15.1799 94.9598 15.1668 94.9972 15.1668H97.9943C98.0317 15.1668 98.064 15.1799 98.0913 15.2059C98.1184 15.2322 98.132 15.2632 98.132 15.2991V15.9853C98.132 16.0213 98.1184 16.0523 98.0913 16.0784C98.064 16.1045 98.0317 16.1175 97.9943 16.1175H96.1848ZM96.9239 17.2743H96.1848V17.7546H96.9239C97.0021 17.7546 97.0608 17.7293 97.0998 17.6786C97.1389 17.628 97.1585 17.5717 97.1585 17.5095V17.5046C97.1585 17.4426 97.1372 17.3887 97.0946 17.3429C97.0522 17.2972 96.9953 17.2743 96.9239 17.2743ZM99.5389 15.1668H101.445C101.928 15.1668 102.31 15.2795 102.592 15.5049C102.874 15.7305 103.015 16.0197 103.015 16.3725C103.015 16.7254 102.896 17.0056 102.658 17.2131C102.421 17.4206 102.016 17.5243 101.445 17.5243H100.772V18.4654C100.772 18.5012 100.759 18.5323 100.732 18.5585C100.704 18.5846 100.672 18.5976 100.635 18.5976H99.5389C99.5015 18.5976 99.4692 18.5846 99.4419 18.5585C99.4148 18.5323 99.4012 18.5012 99.4012 18.4654V15.2991C99.4012 15.2632 99.4148 15.2322 99.4419 15.2059C99.4692 15.1799 99.5015 15.1668 99.5389 15.1668ZM101.425 16.0784H100.777V16.6175H101.425C101.503 16.6175 101.567 16.5947 101.616 16.5489C101.665 16.5032 101.69 16.4394 101.69 16.3577C101.69 16.2761 101.666 16.2091 101.618 16.1568C101.571 16.1045 101.506 16.0784 101.425 16.0784ZM104.295 18.5976H103.331C103.301 18.5976 103.274 18.587 103.252 18.5657C103.23 18.5446 103.219 18.5242 103.219 18.5045C103.219 18.4848 103.221 18.4701 103.224 18.4604L104.335 15.3285C104.366 15.2207 104.442 15.1668 104.565 15.1668H105.982C106.104 15.1668 106.181 15.2207 106.211 15.3285L107.322 18.4604C107.326 18.4701 107.328 18.4848 107.328 18.5045C107.328 18.5242 107.317 18.5446 107.294 18.5657C107.272 18.587 107.246 18.5976 107.215 18.5976H106.252C106.143 18.5976 106.067 18.5421 106.023 18.431L105.895 18.0879H104.651L104.524 18.431C104.48 18.5421 104.403 18.5976 104.295 18.5976ZM104.911 17.1322H105.635L105.273 16.1127L104.911 17.1322ZM111.202 17.5684C111.202 17.9017 111.038 18.1647 110.71 18.3574C110.382 18.5502 109.956 18.6466 109.433 18.6466C108.736 18.6466 108.231 18.4832 107.919 18.1566C107.756 17.9833 107.674 17.8069 107.674 17.6272C107.674 17.5945 107.685 17.5683 107.707 17.5488C107.729 17.5291 107.756 17.5193 107.786 17.5193H108.903C108.94 17.5193 108.977 17.5365 109.015 17.5709C109.052 17.6051 109.079 17.6288 109.096 17.6419C109.151 17.6779 109.249 17.6959 109.392 17.6959C109.681 17.6959 109.825 17.6256 109.825 17.485C109.825 17.3739 109.694 17.3184 109.433 17.3184H108.755C108.717 17.3184 108.685 17.3053 108.658 17.2791C108.631 17.253 108.617 17.222 108.617 17.186V16.5832C108.617 16.5473 108.631 16.5162 108.658 16.4901C108.685 16.4639 108.717 16.4508 108.755 16.4508H109.433C109.694 16.4508 109.825 16.3953 109.825 16.2843C109.825 16.2156 109.79 16.1633 109.718 16.1274C109.647 16.0915 109.558 16.0736 109.453 16.0736C109.348 16.0736 109.267 16.0793 109.211 16.0906C109.155 16.1021 109.118 16.1144 109.099 16.1274C109.08 16.1405 109.052 16.1641 109.015 16.1984C108.977 16.2328 108.94 16.2499 108.903 16.2499H107.786C107.756 16.2499 107.729 16.2401 107.707 16.2205C107.685 16.2009 107.674 16.1748 107.674 16.1422C107.674 15.92 107.803 15.701 108.062 15.4853C108.191 15.3774 108.374 15.2892 108.612 15.2206C108.85 15.152 109.124 15.1177 109.433 15.1177C109.953 15.1177 110.377 15.2157 110.707 15.4118C111.037 15.6079 111.202 15.8726 111.202 16.2058C111.202 16.379 111.144 16.5277 111.028 16.6519C110.913 16.776 110.802 16.8528 110.697 16.8822C110.799 16.9083 110.908 16.9867 111.026 17.1174C111.143 17.2481 111.202 17.3984 111.202 17.5684ZM115.82 16.5832V17.1812C115.82 17.5177 115.735 17.7987 115.565 18.0241C115.395 18.2497 115.172 18.4098 114.897 18.5045C114.622 18.5992 114.297 18.6466 113.923 18.6466C113.55 18.6466 113.225 18.5992 112.95 18.5045C112.675 18.4098 112.452 18.2497 112.282 18.0241C112.112 17.7987 112.027 17.5145 112.027 17.1714V16.5931C112.027 16.0996 112.203 15.7303 112.555 15.4853C112.907 15.2402 113.363 15.1177 113.923 15.1177C114.484 15.1177 114.94 15.2402 115.292 15.4853C115.644 15.7303 115.82 16.0963 115.82 16.5832ZM113.404 16.4901V17.2743C113.404 17.4082 113.45 17.5111 113.544 17.5831C113.637 17.6549 113.764 17.6909 113.923 17.6909C114.083 17.6909 114.21 17.6541 114.303 17.5807C114.397 17.5071 114.443 17.4034 114.443 17.2695V16.495C114.443 16.361 114.397 16.2573 114.303 16.1837C114.21 16.1103 114.083 16.0736 113.923 16.0736C113.764 16.0736 113.637 16.1095 113.544 16.1813C113.45 16.2532 113.404 16.3561 113.404 16.4901ZM120.198 17.5193C120.198 18.2382 119.719 18.5976 118.761 18.5976H116.661C116.623 18.5976 116.591 18.5846 116.564 18.5585C116.537 18.5323 116.523 18.5012 116.523 18.4654V15.2991C116.523 15.2632 116.537 15.2322 116.564 15.2059C116.591 15.1799 116.623 15.1668 116.661 15.1668H118.71C119.192 15.1668 119.548 15.251 119.778 15.4192C120.007 15.5875 120.122 15.8415 120.122 16.1813V16.196C120.122 16.3529 120.078 16.4869 119.989 16.5979C119.901 16.709 119.809 16.7793 119.714 16.8086C119.847 16.8479 119.96 16.9337 120.056 17.066C120.151 17.1983 120.198 17.3494 120.198 17.5193ZM118.587 17.2743H117.848V17.7546H118.587C118.666 17.7546 118.724 17.7293 118.763 17.6786C118.802 17.628 118.822 17.5717 118.822 17.5095V17.5046C118.822 17.4426 118.801 17.3887 118.758 17.3429C118.716 17.2972 118.659 17.2743 118.587 17.2743ZM118.687 16.3848C118.723 16.3373 118.74 16.2842 118.74 16.2255C118.74 16.1666 118.723 16.116 118.687 16.0736C118.651 16.031 118.599 16.0098 118.531 16.0098H117.848V16.4558H118.531C118.599 16.4558 118.651 16.4321 118.687 16.3848ZM121.625 18.5976H120.662C120.632 18.5976 120.605 18.587 120.583 18.5657C120.561 18.5446 120.55 18.5242 120.55 18.5045C120.55 18.4848 120.552 18.4701 120.555 18.4604L121.666 15.3285C121.697 15.2207 121.773 15.1668 121.896 15.1668H123.313C123.435 15.1668 123.512 15.2207 123.542 15.3285L124.653 18.4604C124.657 18.4701 124.658 18.4848 124.658 18.5045C124.658 18.5242 124.647 18.5446 124.625 18.5657C124.603 18.587 124.577 18.5976 124.546 18.5976H123.583C123.474 18.5976 123.398 18.5421 123.354 18.431L123.226 18.0879H121.982L121.855 18.431C121.811 18.5421 121.734 18.5976 121.625 18.5976ZM122.242 17.1322H122.966L122.604 16.1127L122.242 17.1322ZM127.569 15.1668H128.619C128.656 15.1668 128.689 15.1799 128.716 15.2059C128.743 15.2322 128.757 15.2632 128.757 15.2991V18.4654C128.757 18.5012 128.743 18.5323 128.716 18.5585C128.689 18.5846 128.656 18.5976 128.619 18.5976H127.569C127.532 18.5976 127.499 18.5846 127.472 18.5585C127.445 18.5323 127.431 18.5012 127.431 18.4654V17.4214H126.412V18.4654C126.412 18.5012 126.398 18.5323 126.371 18.5585C126.344 18.5846 126.312 18.5976 126.274 18.5976H125.224C125.187 18.5976 125.154 18.5854 125.127 18.5609C125.1 18.5364 125.087 18.5046 125.087 18.4654V15.2991C125.087 15.2632 125.1 15.2322 125.127 15.2059C125.154 15.1799 125.187 15.1668 125.224 15.1668H126.274C126.312 15.1668 126.344 15.1799 126.371 15.2059C126.398 15.2322 126.412 15.2632 126.412 15.2991V16.3039H127.431V15.2991C127.431 15.2632 127.445 15.2322 127.472 15.2059C127.499 15.1799 127.532 15.1668 127.569 15.1668ZM129.628 15.1668H130.576C130.614 15.1668 130.646 15.1799 130.673 15.2059C130.7 15.2322 130.714 15.2632 130.714 15.2991V16.7401L131.825 15.2647C131.876 15.1995 131.942 15.1668 132.024 15.1668H132.85C132.887 15.1668 132.919 15.1799 132.947 15.2059C132.974 15.2322 132.987 15.2632 132.987 15.2991V18.4654C132.987 18.5012 132.974 18.5323 132.947 18.5585C132.919 18.5846 132.887 18.5976 132.85 18.5976H131.902C131.864 18.5976 131.832 18.5846 131.805 18.5585C131.778 18.5323 131.764 18.5012 131.764 18.4654V17.1322L130.653 18.4947C130.598 18.5633 130.53 18.5976 130.449 18.5976H129.628C129.591 18.5976 129.559 18.5846 129.531 18.5585C129.504 18.5323 129.491 18.5012 129.491 18.4654V15.2991C129.491 15.2632 129.504 15.2322 129.531 15.2059C129.559 15.1799 129.591 15.1668 129.628 15.1668ZM133.655 16.3529C133.655 15.9869 133.791 15.6977 134.063 15.4853C134.335 15.273 134.703 15.1668 135.169 15.1668H137.152C137.189 15.1668 137.222 15.1799 137.249 15.2059C137.276 15.2322 137.29 15.2632 137.29 15.2991V18.4654C137.29 18.5012 137.276 18.5323 137.249 18.5585C137.222 18.5846 137.189 18.5976 137.152 18.5976H136.051C136.014 18.5976 135.981 18.5846 135.954 18.5585C135.927 18.5323 135.913 18.5012 135.913 18.4654V17.5046H135.485L135.036 18.475C134.996 18.5567 134.924 18.5976 134.823 18.5976H133.665C133.635 18.5976 133.608 18.587 133.586 18.5657C133.564 18.5446 133.553 18.5225 133.553 18.4997C133.553 18.4768 133.557 18.4588 133.563 18.4457L134.19 17.3184C133.834 17.1191 133.655 16.7973 133.655 16.3529ZM135.276 16.5979H135.913V16.0784H135.276C135.198 16.0784 135.139 16.1053 135.1 16.1593C135.061 16.2132 135.042 16.276 135.042 16.3479C135.042 16.4198 135.062 16.4795 135.103 16.5269C135.144 16.5742 135.201 16.5979 135.276 16.5979ZM64.6172 9.09904H67.91C67.9474 9.09904 67.9797 9.11214 68.0068 9.13835C68.0341 9.16445 68.0477 9.19548 68.0477 9.23146V12.3976C68.0477 12.4336 68.0341 12.4646 68.0068 12.4907C67.9797 12.5168 67.9474 12.5298 67.91 12.5298H66.911C66.8736 12.5298 66.8413 12.5168 66.8142 12.4907C66.7869 12.4646 66.7733 12.4336 66.7733 12.3976V10.1577H65.7539V12.3976C65.7539 12.4336 65.7403 12.4646 65.713 12.4907C65.6859 12.5168 65.6536 12.5298 65.6162 12.5298H64.6172C64.5798 12.5298 64.5475 12.5176 64.5204 12.4931C64.4931 12.4686 64.4795 12.4368 64.4795 12.3976V9.23146C64.4795 9.19548 64.4931 9.16445 64.5204 9.13835C64.5475 9.11214 64.5798 9.09904 64.6172 9.09904ZM69.2099 9.09904H71.1162C71.5988 9.09904 71.9811 9.2118 72.2631 9.43733C72.5451 9.66274 72.6861 9.95188 72.6861 10.3048C72.6861 10.6577 72.5672 10.9378 72.3295 11.1453C72.0916 11.3528 71.6872 11.4565 71.1162 11.4565H70.4434V12.3976C70.4434 12.4336 70.4298 12.4646 70.4027 12.4907C70.3754 12.5168 70.3431 12.5298 70.3057 12.5298H69.2099C69.1725 12.5298 69.1402 12.5168 69.1131 12.4907C69.0858 12.4646 69.0722 12.4336 69.0722 12.3976V9.23146C69.0722 9.19548 69.0858 9.16445 69.1131 9.13835C69.1402 9.11214 69.1725 9.09904 69.2099 9.09904ZM71.0959 10.0106H70.4484V10.5498H71.0959C71.174 10.5498 71.2377 10.5269 71.2871 10.4812C71.3364 10.4354 71.361 10.3717 71.361 10.2901C71.361 10.2084 71.3372 10.1414 71.2896 10.0891C71.242 10.0368 71.1775 10.0106 71.0959 10.0106ZM76.8253 10.5155V11.1134C76.8253 11.45 76.7403 11.731 76.5703 11.9565C76.4005 12.182 76.1779 12.342 75.9026 12.4367C75.6274 12.5316 75.3029 12.579 74.929 12.579C74.5552 12.579 74.2307 12.5316 73.9555 12.4367C73.6802 12.342 73.4576 12.182 73.2877 11.9565C73.1178 11.731 73.0328 11.4467 73.0328 11.1036V10.5253C73.0328 10.0319 73.2087 9.66274 73.5605 9.41767C73.9122 9.17261 74.3684 9.05007 74.929 9.05007C75.4897 9.05007 75.9459 9.17261 76.2976 9.41767C76.6494 9.66274 76.8253 10.0287 76.8253 10.5155ZM74.4092 10.4224V11.2065C74.4092 11.3405 74.4559 11.4435 74.5492 11.5153C74.6427 11.5873 74.7693 11.6233 74.929 11.6233C75.0887 11.6233 75.2153 11.5865 75.3088 11.5129C75.4022 11.4393 75.4489 11.3356 75.4489 11.2017V10.4274C75.4489 10.2933 75.4022 10.1896 75.3088 10.1161C75.2153 10.0426 75.0887 10.0058 74.929 10.0058C74.7693 10.0058 74.6427 10.0417 74.5492 10.1136C74.4559 10.1855 74.4092 10.2884 74.4092 10.4224ZM79.797 9.44215C80.2387 9.50744 80.593 9.65613 80.8598 9.8882C81.1265 10.1202 81.2598 10.4265 81.2598 10.8072C81.2598 11.1878 81.1273 11.4982 80.8623 11.7384C80.5973 11.9786 80.2422 12.1329 79.797 12.2015V12.4466C79.797 12.4825 79.7834 12.5136 79.7563 12.5397C79.729 12.5659 79.6967 12.579 79.6593 12.579H78.8642C78.8267 12.579 78.7945 12.5659 78.7673 12.5397C78.7402 12.5136 78.7266 12.4825 78.7266 12.4466V12.1965C78.2916 12.1247 77.9432 11.9663 77.6816 11.7212C77.4199 11.4761 77.289 11.1674 77.289 10.795C77.289 10.4224 77.4207 10.121 77.6841 9.89062C77.9474 9.66026 78.2949 9.51078 78.7266 9.44215V9.18232C78.7266 9.14645 78.7402 9.11542 78.7673 9.08921C78.7945 9.06312 78.8267 9.05007 78.8642 9.05007H79.6593C79.6967 9.05007 79.729 9.06312 79.7563 9.08921C79.7834 9.11542 79.797 9.14645 79.797 9.18232V9.44215ZM79.7715 10.3686V11.2703C80.0162 11.1886 80.1386 11.0383 80.1386 10.8194C80.1386 10.6005 80.0162 10.4502 79.7715 10.3686ZM78.7521 11.2703V10.3686C78.5074 10.4436 78.385 10.5922 78.385 10.8144C78.385 11.0366 78.5074 11.1886 78.7521 11.2703ZM83.2122 11.2653V11.5741H85.2461C85.2834 11.5741 85.3156 11.5872 85.3429 11.6134C85.37 11.6395 85.3836 11.6706 85.3836 11.7065V12.3976C85.3836 12.4336 85.37 12.4646 85.3429 12.4907C85.3156 12.5168 85.2834 12.5298 85.2461 12.5298H82.0245C81.9872 12.5298 81.9549 12.5168 81.9276 12.4907C81.9005 12.4646 81.8869 12.4336 81.8869 12.3976V9.23146C81.8869 9.19548 81.9005 9.16445 81.9276 9.13835C81.9549 9.11214 81.9872 9.09904 82.0245 9.09904H85.195C85.2324 9.09904 85.2647 9.11214 85.2918 9.13835C85.3191 9.16445 85.3327 9.19548 85.3327 9.23146V9.92251C85.3327 9.95838 85.3191 9.98941 85.2918 10.0156C85.2647 10.0417 85.2324 10.0548 85.195 10.0548H83.2122V10.3636H84.9147C84.9521 10.3636 84.9844 10.3766 85.0115 10.4027C85.0387 10.4289 85.0522 10.46 85.0522 10.496V11.1331C85.0522 11.169 85.0387 11.2001 85.0115 11.2262C84.9844 11.2523 84.9521 11.2653 84.9147 11.2653H83.2122ZM87.4583 10.4224V11.2065C87.4583 11.3405 87.505 11.4435 87.5984 11.5153C87.6918 11.5873 87.8142 11.6233 87.9654 11.6233C88.1166 11.6233 88.2262 11.6004 88.2941 11.5546C88.3621 11.5089 88.4191 11.4419 88.465 11.3536C88.5108 11.2654 88.5711 11.2213 88.6459 11.2213H89.7469C89.7775 11.2213 89.8038 11.2319 89.8258 11.2531C89.8479 11.2743 89.859 11.2997 89.859 11.3291C89.859 11.633 89.7095 11.9107 89.4105 12.1622C89.261 12.2865 89.0622 12.387 88.8141 12.4638C88.5661 12.5406 88.2738 12.579 87.9374 12.579C87.6009 12.579 87.2942 12.5291 87.0174 12.4295C86.7404 12.3298 86.5152 12.1664 86.3419 11.9393C86.1685 11.7122 86.0819 11.4336 86.0819 11.1036V10.5253C86.0819 10.1953 86.1685 9.9159 86.3419 9.68716C86.6681 9.26244 87.2135 9.05007 87.9782 9.05007C88.2874 9.05007 88.5661 9.08846 88.8141 9.16525C89.0622 9.24203 89.261 9.3425 89.4105 9.46664C89.7095 9.71825 89.859 9.99602 89.859 10.2999C89.859 10.3293 89.8479 10.3545 89.8258 10.3758C89.8038 10.3971 89.7775 10.4077 89.7469 10.4077H88.6459C88.5711 10.4077 88.5108 10.3636 88.465 10.2753C88.4191 10.1871 88.3621 10.1202 88.2941 10.0744C88.2262 10.0287 88.1166 10.0058 87.9654 10.0058C87.8142 10.0058 87.6918 10.0417 87.5984 10.1136C87.505 10.1855 87.4583 10.2884 87.4583 10.4224ZM91.791 10.4224V11.2065C91.791 11.3405 91.8377 11.4435 91.9312 11.5153C92.0246 11.5873 92.1469 11.6233 92.2981 11.6233C92.4493 11.6233 92.5589 11.6004 92.627 11.5546C92.6949 11.5089 92.7518 11.4419 92.7977 11.3536C92.8436 11.2654 92.9039 11.2213 92.9786 11.2213H94.0796C94.1102 11.2213 94.1366 11.2319 94.1587 11.2531C94.1808 11.2743 94.1919 11.2997 94.1919 11.3291C94.1919 11.633 94.0423 11.9107 93.7432 12.1622C93.5937 12.2865 93.3949 12.387 93.1468 12.4638C92.8987 12.5406 92.6065 12.579 92.2701 12.579C91.9337 12.579 91.627 12.5291 91.35 12.4295C91.073 12.3298 90.8479 12.1664 90.6745 11.9393C90.5013 11.7122 90.4147 11.4336 90.4147 11.1036V10.5253C90.4147 10.1953 90.5013 9.9159 90.6745 9.68716C91.0008 9.26244 91.5462 9.05007 92.3108 9.05007C92.6201 9.05007 92.8987 9.08846 93.1468 9.16525C93.3949 9.24203 93.5937 9.3425 93.7432 9.46664C94.0423 9.71825 94.1919 9.99602 94.1919 10.2999C94.1919 10.3293 94.1808 10.3545 94.1587 10.3758C94.1366 10.3971 94.1102 10.4077 94.0796 10.4077H92.9786C92.9039 10.4077 92.8436 10.3636 92.7977 10.2753C92.7518 10.1871 92.6949 10.1202 92.627 10.0744C92.5589 10.0287 92.4493 10.0058 92.2981 10.0058C92.1469 10.0058 92.0246 10.0417 91.9312 10.1136C91.8377 10.1855 91.791 10.2884 91.791 10.4224ZM94.9665 9.09904H95.9147C95.952 9.09904 95.9843 9.11214 96.0116 9.13835C96.0387 9.16445 96.0523 9.19548 96.0523 9.23146V10.6724L97.1635 9.19715C97.2144 9.13174 97.2807 9.09904 97.3624 9.09904H98.1881C98.2254 9.09904 98.2577 9.11214 98.285 9.13835C98.3121 9.16445 98.3257 9.19548 98.3257 9.23146V12.3976C98.3257 12.4336 98.3121 12.4646 98.285 12.4907C98.2577 12.5168 98.2254 12.5298 98.1881 12.5298H97.2399C97.2026 12.5298 97.1703 12.5168 97.1431 12.4907C97.1159 12.4646 97.1024 12.4336 97.1024 12.3976V11.0644L95.9911 12.4269C95.9367 12.4955 95.8688 12.5298 95.7872 12.5298H94.9665C94.9292 12.5298 94.8969 12.5168 94.8697 12.4907C94.8425 12.4646 94.829 12.4336 94.829 12.3976V9.23146C94.829 9.19548 94.8425 9.16445 94.8697 9.13835C94.8969 9.11214 94.9292 9.09904 94.9665 9.09904ZM102.822 10.5155V11.1134C102.822 11.45 102.737 11.731 102.567 11.9565C102.397 12.182 102.174 12.342 101.899 12.4367C101.624 12.5316 101.299 12.579 100.925 12.579C100.552 12.579 100.227 12.5316 99.9517 12.4367C99.6765 12.342 99.4539 12.182 99.2839 11.9565C99.1141 11.731 99.0291 11.4467 99.0291 11.1036V10.5253C99.0291 10.0319 99.205 9.66274 99.5567 9.41767C99.9084 9.17261 100.365 9.05007 100.925 9.05007C101.486 9.05007 101.942 9.17261 102.294 9.41767C102.646 9.66274 102.822 10.0287 102.822 10.5155ZM100.405 10.4224V11.2065C100.405 11.3405 100.452 11.4435 100.546 11.5153C100.639 11.5873 100.766 11.6233 100.925 11.6233C101.085 11.6233 101.212 11.5865 101.305 11.5129C101.399 11.4393 101.445 11.3356 101.445 11.2017V10.4274C101.445 10.2933 101.399 10.1896 101.305 10.1161C101.212 10.0426 101.085 10.0058 100.925 10.0058C100.766 10.0058 100.639 10.0417 100.546 10.1136C100.452 10.1855 100.405 10.2884 100.405 10.4224ZM105.905 9.09904H106.955C106.993 9.09904 107.025 9.11214 107.052 9.13835C107.079 9.16445 107.093 9.19548 107.093 9.23146V12.3976C107.093 12.4336 107.079 12.4646 107.052 12.4907C107.025 12.5168 106.993 12.5298 106.955 12.5298H105.905C105.868 12.5298 105.836 12.5168 105.809 12.4907C105.781 12.4646 105.768 12.4336 105.768 12.3976V11.3536H104.748V12.3976C104.748 12.4336 104.735 12.4646 104.708 12.4907C104.68 12.5168 104.648 12.5298 104.611 12.5298H103.561C103.523 12.5298 103.491 12.5176 103.464 12.4931C103.437 12.4686 103.423 12.4368 103.423 12.3976V9.23146C103.423 9.19548 103.437 9.16445 103.464 9.13835C103.491 9.11214 103.523 9.09904 103.561 9.09904H104.611C104.648 9.09904 104.68 9.11214 104.708 9.13835C104.735 9.16445 104.748 9.19548 104.748 9.23146V10.2361H105.768V9.23146C105.768 9.19548 105.781 9.16445 105.809 9.13835C105.836 9.11214 105.868 9.09904 105.905 9.09904ZM108.627 12.5298H107.664C107.633 12.5298 107.607 12.5193 107.585 12.4981C107.563 12.4768 107.552 12.4564 107.552 12.4367C107.552 12.4172 107.554 12.4025 107.557 12.3928L108.668 9.26077C108.699 9.15295 108.775 9.09904 108.897 9.09904H110.314C110.437 9.09904 110.513 9.15295 110.544 9.26077L111.655 12.3928C111.659 12.4025 111.66 12.4172 111.66 12.4367C111.66 12.4564 111.649 12.4768 111.627 12.4981C111.605 12.5193 111.579 12.5298 111.548 12.5298H110.585C110.476 12.5298 110.399 12.4743 110.355 12.3633L110.228 12.0202H108.984L108.857 12.3633C108.813 12.4743 108.736 12.5298 108.627 12.5298ZM109.244 11.0644H109.968L109.606 10.0449L109.244 11.0644ZM112.088 12.579C112.051 12.579 112.018 12.5659 111.989 12.5397C111.96 12.5136 111.946 12.4825 111.946 12.4466V11.6624C111.946 11.6264 111.959 11.5954 111.986 11.5693C112.014 11.5432 112.046 11.5301 112.083 11.5301C112.226 11.5301 112.325 11.4999 112.379 11.4395C112.433 11.379 112.461 11.2834 112.461 11.1527V9.23146C112.461 9.19548 112.474 9.16445 112.501 9.13835C112.529 9.11214 112.561 9.09904 112.598 9.09904H115.493C115.531 9.09904 115.563 9.11214 115.59 9.13835C115.617 9.16445 115.631 9.19548 115.631 9.23146V12.3976C115.631 12.4336 115.617 12.4646 115.59 12.4907C115.563 12.5168 115.531 12.5298 115.493 12.5298H114.545C114.508 12.5298 114.476 12.5168 114.448 12.4907C114.421 12.4646 114.408 12.4336 114.408 12.3976V10.1529H113.684V11.1379C113.684 11.6215 113.544 11.9826 113.263 12.2212C112.983 12.4597 112.591 12.579 112.088 12.579ZM118.715 11.0841H118.129V11.6134H118.715C118.824 11.6134 118.907 11.5889 118.965 11.5398C119.022 11.4908 119.051 11.4239 119.051 11.3389C119.051 11.169 118.939 11.0841 118.715 11.0841ZM118.129 9.23146V10.192H118.715C119.191 10.192 119.578 10.2933 119.877 10.496C120.176 10.6985 120.326 10.9844 120.326 11.3536C120.326 11.7228 120.177 12.0111 119.88 12.2186C119.582 12.4261 119.196 12.5298 118.72 12.5298H116.941C116.904 12.5298 116.871 12.5168 116.844 12.4907C116.817 12.4646 116.803 12.4336 116.803 12.3976V9.23146C116.803 9.19548 116.817 9.16445 116.844 9.13835C116.871 9.11214 116.904 9.09904 116.941 9.09904H117.991C118.028 9.09904 118.061 9.11214 118.088 9.13835C118.115 9.16445 118.129 9.19548 118.129 9.23146ZM123.236 9.09904H124.286C124.324 9.09904 124.356 9.11214 124.383 9.13835C124.41 9.16445 124.424 9.19548 124.424 9.23146V12.3976C124.424 12.4336 124.41 12.4646 124.383 12.4907C124.356 12.5168 124.324 12.5298 124.286 12.5298H123.236C123.199 12.5298 123.167 12.5168 123.139 12.4907C123.112 12.4646 123.099 12.4336 123.099 12.3976V11.3536H122.079V12.3976C122.079 12.4336 122.066 12.4646 122.038 12.4907C122.011 12.5168 121.979 12.5298 121.942 12.5298H120.892C120.854 12.5298 120.822 12.5176 120.795 12.4931C120.767 12.4686 120.754 12.4368 120.754 12.3976V9.23146C120.754 9.19548 120.767 9.16445 120.795 9.13835C120.822 9.11214 120.854 9.09904 120.892 9.09904H121.942C121.979 9.09904 122.011 9.11214 122.038 9.13835C122.066 9.16445 122.079 9.19548 122.079 9.23146V10.2361H123.099V9.23146C123.099 9.19548 123.112 9.16445 123.139 9.13835C123.167 9.11214 123.199 9.09904 123.236 9.09904ZM128.818 10.5155V11.1134C128.818 11.45 128.733 11.731 128.563 11.9565C128.393 12.182 128.17 12.342 127.895 12.4367C127.62 12.5316 127.295 12.579 126.922 12.579C126.548 12.579 126.223 12.5316 125.948 12.4367C125.673 12.342 125.45 12.182 125.28 11.9565C125.11 11.731 125.025 11.4467 125.025 11.1036V10.5253C125.025 10.0319 125.201 9.66274 125.553 9.41767C125.905 9.17261 126.361 9.05007 126.922 9.05007C127.482 9.05007 127.938 9.17261 128.29 9.41767C128.642 9.66274 128.818 10.0287 128.818 10.5155ZM126.402 10.4224V11.2065C126.402 11.3405 126.448 11.4435 126.542 11.5153C126.635 11.5873 126.762 11.6233 126.922 11.6233C127.081 11.6233 127.208 11.5865 127.301 11.5129C127.395 11.4393 127.441 11.3356 127.441 11.2017V10.4274C127.441 10.2933 127.395 10.1896 127.301 10.1161C127.208 10.0426 127.081 10.0058 126.922 10.0058C126.762 10.0058 126.635 10.0417 126.542 10.1136C126.448 10.1855 126.402 10.2884 126.402 10.4224ZM131.259 12.5298H130.209C130.172 12.5298 130.14 12.5168 130.113 12.4907C130.085 12.4646 130.072 12.4336 130.072 12.3976V9.23146C130.072 9.19548 130.085 9.16445 130.113 9.13835C130.14 9.11214 130.172 9.09904 130.209 9.09904H132.977C133.015 9.09904 133.047 9.11214 133.074 9.13835C133.101 9.16445 133.115 9.19548 133.115 9.23146V10.0204C133.115 10.0564 133.101 10.0875 133.074 10.1136C133.047 10.1398 133.015 10.1529 132.977 10.1529H131.392L131.397 12.3976C131.397 12.4336 131.383 12.4646 131.356 12.4907C131.329 12.5168 131.297 12.5298 131.259 12.5298ZM137.483 10.5155V11.1134C137.483 11.45 137.398 11.731 137.228 11.9565C137.058 12.182 136.836 12.342 136.561 12.4367C136.285 12.5316 135.961 12.579 135.587 12.579C135.213 12.579 134.889 12.5316 134.613 12.4367C134.338 12.342 134.116 12.182 133.946 11.9565C133.776 11.731 133.691 11.4467 133.691 11.1036V10.5253C133.691 10.0319 133.867 9.66274 134.218 9.41767C134.57 9.17261 135.026 9.05007 135.587 9.05007C136.148 9.05007 136.604 9.17261 136.956 9.41767C137.307 9.66274 137.483 10.0287 137.483 10.5155ZM135.067 10.4224V11.2065C135.067 11.3405 135.114 11.4435 135.207 11.5153C135.301 11.5873 135.427 11.6233 135.587 11.6233C135.747 11.6233 135.873 11.5865 135.967 11.5129C136.06 11.4393 136.107 11.3356 136.107 11.2017V10.4274C136.107 10.2933 136.06 10.1896 135.967 10.1161C135.873 10.0426 135.747 10.0058 135.587 10.0058C135.427 10.0058 135.301 10.0417 135.207 10.1136C135.114 10.1855 135.067 10.2884 135.067 10.4224ZM107.965 3.03144H108.913C108.95 3.03144 108.982 3.04449 109.01 3.07058C109.037 3.09667 109.05 3.12771 109.05 3.16369V4.60459L110.162 3.12938C110.213 3.06409 110.279 3.03144 110.36 3.03144H111.186C111.224 3.03144 111.256 3.04449 111.283 3.07058C111.31 3.09667 111.324 3.12771 111.324 3.16369V6.32982C111.324 6.3658 111.31 6.39683 111.283 6.42292C111.256 6.44913 111.224 6.46224 111.186 6.46224H110.238C110.201 6.46224 110.168 6.44913 110.141 6.42292C110.114 6.39683 110.101 6.3658 110.101 6.32982V4.99668L108.989 6.3593C108.935 6.42793 108.867 6.46224 108.785 6.46224H107.965C107.927 6.46224 107.895 6.44913 107.868 6.42292C107.841 6.39683 107.827 6.3658 107.827 6.32982V3.16369C107.827 3.12771 107.841 3.09667 107.868 3.07058C107.895 3.04449 107.927 3.03144 107.965 3.03144ZM113.454 4.35476V5.13892C113.454 5.27283 113.501 5.37577 113.595 5.44772C113.688 5.51956 113.81 5.55549 113.962 5.55549C114.113 5.55549 114.222 5.53261 114.29 5.48686C114.358 5.44111 114.415 5.37416 114.461 5.28599C114.507 5.19772 114.567 5.15357 114.642 5.15357H115.743C115.774 5.15357 115.8 5.16421 115.822 5.18547C115.844 5.20674 115.855 5.23203 115.855 5.26134C115.855 5.56525 115.706 5.84302 115.407 6.09464C115.257 6.21878 115.058 6.31924 114.81 6.39603C114.562 6.47281 114.27 6.5112 113.934 6.5112C113.597 6.5112 113.291 6.46137 113.014 6.36172C112.737 6.26206 112.511 6.09866 112.338 5.87153C112.165 5.64451 112.078 5.366 112.078 5.03599V4.45769C112.078 4.12757 112.165 3.84819 112.338 3.61956C112.664 3.19472 113.21 2.9823 113.974 2.9823C114.284 2.9823 114.562 3.02069 114.81 3.09748C115.058 3.17426 115.257 3.27472 115.407 3.39887C115.706 3.65048 115.855 3.92825 115.855 4.23217C115.855 4.26159 115.844 4.28694 115.822 4.3082C115.8 4.32935 115.774 4.33993 115.743 4.33993H114.642C114.567 4.33993 114.507 4.29585 114.461 4.20769C114.415 4.11941 114.358 4.05239 114.29 4.00664C114.222 3.9609 114.113 3.93802 113.962 3.93802C113.81 3.93802 113.688 3.974 113.595 4.04596C113.501 4.1178 113.454 4.22073 113.454 4.35476ZM116.498 3.03144H120.015C120.052 3.03144 120.084 3.04449 120.112 3.07058C120.139 3.09667 120.152 3.12771 120.152 3.16369V3.95285C120.152 3.98871 120.139 4.01975 120.112 4.04596C120.084 4.07205 120.052 4.0851 120.015 4.0851H118.919V6.32982C118.919 6.3658 118.905 6.39683 118.878 6.42292C118.851 6.44913 118.819 6.46224 118.781 6.46224H117.731C117.694 6.46224 117.661 6.44913 117.634 6.42292C117.607 6.39683 117.594 6.3658 117.594 6.32982V4.0851H116.498C116.46 4.0851 116.428 4.07205 116.401 4.04596C116.374 4.01975 116.36 3.98871 116.36 3.95285V3.16369C116.36 3.12771 116.374 3.09667 116.401 3.07058C116.428 3.04449 116.46 3.03144 116.498 3.03144ZM124.485 4.44786V5.04581C124.485 5.38238 124.4 5.66336 124.23 5.88877C124.06 6.11418 123.838 6.2743 123.562 6.36913C123.287 6.46385 122.963 6.5112 122.589 6.5112C122.215 6.5112 121.891 6.46385 121.615 6.36913C121.34 6.2743 121.117 6.11418 120.947 5.88877C120.778 5.66336 120.693 5.3791 120.693 5.03599V4.45769C120.693 3.96423 120.868 3.59496 121.22 3.3499C121.572 3.10483 122.028 2.9823 122.589 2.9823C123.15 2.9823 123.606 3.10483 123.957 3.3499C124.309 3.59496 124.485 3.96095 124.485 4.44786ZM122.069 4.35476V5.13892C122.069 5.27283 122.116 5.37577 122.209 5.44772C122.303 5.51956 122.429 5.55549 122.589 5.55549C122.749 5.55549 122.875 5.5187 122.969 5.44514C123.062 5.37169 123.109 5.26795 123.109 5.13392V4.35959C123.109 4.22567 123.062 4.12194 122.969 4.04837C122.875 3.97481 122.749 3.93802 122.589 3.93802C122.429 3.93802 122.303 3.974 122.209 4.04596C122.116 4.1178 122.069 4.22073 122.069 4.35476ZM125.535 3.03144H127.441C127.924 3.03144 128.306 3.14415 128.588 3.36955C128.87 3.59496 129.012 3.88411 129.012 4.237C129.012 4.58988 128.893 4.87006 128.655 5.07754C128.417 5.28513 128.012 5.38893 127.441 5.38893H126.769V6.32982C126.769 6.3658 126.755 6.39683 126.728 6.42292C126.701 6.44913 126.668 6.46224 126.631 6.46224H125.535C125.498 6.46224 125.465 6.44913 125.438 6.42292C125.411 6.39683 125.398 6.3658 125.398 6.32982V3.16369C125.398 3.12771 125.411 3.09667 125.438 3.07058C125.465 3.04449 125.498 3.03144 125.535 3.03144ZM127.421 3.94302H126.774V4.48218H127.421C127.499 4.48218 127.563 4.4593 127.612 4.41355C127.662 4.36781 127.686 4.30407 127.686 4.22234C127.686 4.14061 127.662 4.07366 127.615 4.02147C127.567 3.96917 127.503 3.94302 127.421 3.94302ZM129.628 3.03144H130.576C130.614 3.03144 130.646 3.04449 130.673 3.07058C130.7 3.09667 130.714 3.12771 130.714 3.16369V4.60459L131.825 3.12938C131.876 3.06409 131.942 3.03144 132.024 3.03144H132.85C132.887 3.03144 132.919 3.04449 132.947 3.07058C132.974 3.09667 132.987 3.12771 132.987 3.16369V6.32982C132.987 6.3658 132.974 6.39683 132.947 6.42292C132.919 6.44913 132.887 6.46224 132.85 6.46224H131.902C131.864 6.46224 131.832 6.44913 131.805 6.42292C131.778 6.39683 131.764 6.3658 131.764 6.32982V4.99668L130.653 6.3593C130.598 6.42793 130.53 6.46224 130.449 6.46224H129.628C129.591 6.46224 129.559 6.44913 129.531 6.42292C129.504 6.39683 129.491 6.3658 129.491 6.32982V3.16369C129.491 3.12771 129.504 3.09667 129.531 3.07058C129.559 3.04449 129.591 3.03144 129.628 3.03144ZM133.961 3.03144H134.909C134.946 3.03144 134.979 3.04449 135.006 3.07058C135.033 3.09667 135.047 3.12771 135.047 3.16369V4.60459L136.158 3.12938C136.209 3.06409 136.275 3.03144 136.357 3.03144H137.183C137.22 3.03144 137.252 3.04449 137.279 3.07058C137.306 3.09667 137.32 3.12771 137.32 3.16369V6.32982C137.32 6.3658 137.306 6.39683 137.279 6.42292C137.252 6.44913 137.22 6.46224 137.183 6.46224H136.234C136.197 6.46224 136.165 6.44913 136.137 6.42292C136.11 6.39683 136.097 6.3658 136.097 6.32982V4.99668L134.986 6.3593C134.931 6.42793 134.863 6.46224 134.782 6.46224H133.961C133.924 6.46224 133.891 6.44913 133.864 6.42292C133.837 6.39683 133.823 6.3658 133.823 6.32982V3.16369C133.823 3.12771 133.837 3.09667 133.864 3.07058C133.891 3.04449 133.924 3.03144 133.961 3.03144ZM84.4815 3.03144H85.4143C85.4516 3.03144 85.4838 3.04449 85.5111 3.07058C85.5382 3.09667 85.5518 3.12771 85.5518 3.16369V6.32982C85.5518 6.3658 85.5382 6.39683 85.5111 6.42292C85.4838 6.44913 85.4516 6.46224 85.4143 6.46224H84.4917C84.4543 6.46224 84.4219 6.44913 84.3947 6.42292C84.3675 6.39683 84.354 6.3658 84.354 6.32982V4.81046L83.9819 5.51635C83.9614 5.55554 83.9308 5.58571 83.8901 5.60686C83.8493 5.62813 83.8085 5.63876 83.7678 5.63876H83.4212C83.3634 5.63876 83.3158 5.62405 83.2784 5.59462C83.241 5.56531 83.2172 5.53922 83.207 5.51635L82.835 4.81046V6.32982C82.835 6.3658 82.8214 6.39683 82.7943 6.42292C82.767 6.44913 82.7347 6.46224 82.6973 6.46224H81.7747C81.7374 6.46224 81.7051 6.44913 81.6778 6.42292C81.6507 6.39683 81.6371 6.3658 81.6371 6.32982V3.16369C81.6371 3.12771 81.6507 3.09667 81.6778 3.07058C81.7051 3.04449 81.7374 3.03144 81.7747 3.03144H82.7075C82.8026 3.03144 82.8757 3.07552 82.9268 3.16369L83.5944 4.33993L84.2622 3.16369C84.3132 3.07552 84.3863 3.03144 84.4815 3.03144ZM87.2542 6.46224H86.3317C86.2944 6.46224 86.2621 6.44913 86.2348 6.42292C86.2077 6.39683 86.1941 6.3658 86.1941 6.32982V5.54566C86.1941 5.50968 86.2077 5.47864 86.2348 5.45255C86.2621 5.42646 86.2944 5.41341 86.3317 5.41341H87.0504C87.2407 5.41341 87.3461 5.40031 87.3665 5.3741L86.2603 3.18334C86.2569 3.17346 86.2553 3.16202 86.2553 3.14903C86.2689 3.07064 86.3114 3.03144 86.3828 3.03144H87.499C87.5704 3.03144 87.6248 3.07064 87.6622 3.14903L88.233 4.43304L88.7325 3.14903C88.7665 3.07064 88.8243 3.03144 88.9059 3.03144H89.961C89.9916 3.03144 90.0188 3.04202 90.0426 3.06317C90.0664 3.08443 90.0783 3.10811 90.0783 3.1342C90.0783 3.16041 90.0766 3.17679 90.0731 3.18334L89.3085 4.90357C89.1624 5.23691 89.0486 5.47709 88.9671 5.62411C88.8854 5.77112 88.7682 5.92222 88.6153 6.0774C88.4624 6.23269 88.2806 6.33562 88.07 6.3862C87.8592 6.43689 87.5873 6.46224 87.2542 6.46224ZM93.8707 5.4329C93.8707 5.76624 93.7067 6.02929 93.3788 6.22206C93.0508 6.41482 92.6252 6.5112 92.1019 6.5112C91.4052 6.5112 90.9005 6.34781 90.5879 6.02102C90.4249 5.84791 90.3434 5.67146 90.3434 5.49169C90.3434 5.45904 90.3544 5.43295 90.3765 5.41341C90.3985 5.39376 90.4248 5.38393 90.4554 5.38393H91.5717C91.6091 5.38393 91.6465 5.40111 91.6839 5.43548C91.7213 5.46974 91.7485 5.49341 91.7655 5.50652C91.8198 5.54238 91.9183 5.56031 92.061 5.56031C92.35 5.56031 92.4944 5.49008 92.4944 5.34962C92.4944 5.23858 92.3636 5.18306 92.1019 5.18306H91.4239C91.3865 5.18306 91.3542 5.16996 91.3271 5.14375C91.2999 5.11766 91.2864 5.08662 91.2864 5.05064V4.44786C91.2864 4.41189 91.2999 4.38085 91.3271 4.35476C91.3542 4.32855 91.3865 4.31545 91.4239 4.31545H92.1019C92.3636 4.31545 92.4944 4.25993 92.4944 4.14889C92.4944 4.08027 92.4588 4.02797 92.3874 3.99199C92.316 3.95601 92.2276 3.93802 92.1222 3.93802C92.0169 3.93802 91.9362 3.94377 91.8801 3.95526C91.824 3.96664 91.7867 3.97888 91.768 3.99199C91.7494 4.00509 91.7213 4.02877 91.6839 4.06302C91.6465 4.09739 91.6091 4.11458 91.5717 4.11458H90.4554C90.4248 4.11458 90.3985 4.10475 90.3765 4.0851C90.3544 4.06555 90.3434 4.0394 90.3434 4.00664C90.3434 3.78445 90.4725 3.56554 90.7307 3.3499C90.8598 3.24208 91.0433 3.15386 91.2812 3.08524C91.5191 3.01661 91.7926 2.9823 92.1019 2.9823C92.6218 2.9823 93.0466 3.08035 93.3761 3.27645C93.7058 3.47243 93.8707 3.7371 93.8707 4.07044C93.8707 4.24355 93.8129 4.39223 93.6973 4.51649C93.5818 4.64063 93.4714 4.71741 93.3659 4.74684C93.4679 4.77293 93.5775 4.85133 93.6948 4.98202C93.8121 5.11271 93.8707 5.26301 93.8707 5.4329ZM96.2103 5.19771V5.50652H98.2441C98.2815 5.50652 98.3138 5.51956 98.3409 5.54566C98.3682 5.57186 98.3818 5.6029 98.3818 5.63876V6.32982C98.3818 6.3658 98.3682 6.39683 98.3409 6.42292C98.3138 6.44913 98.2815 6.46224 98.2441 6.46224H95.0226C94.9852 6.46224 94.9529 6.44913 94.9258 6.42292C94.8986 6.39683 94.8849 6.3658 94.8849 6.32982V3.16369C94.8849 3.12771 94.8986 3.09667 94.9258 3.07058C94.9529 3.04449 94.9852 3.03144 95.0226 3.03144H98.1932C98.2306 3.03144 98.2628 3.04449 98.29 3.07058C98.3172 3.09667 98.3309 3.12771 98.3309 3.16369V3.85474C98.3309 3.89072 98.3172 3.92176 98.29 3.94785C98.2628 3.97406 98.2306 3.98716 98.1932 3.98716H96.2103V4.29579H97.9129C97.9502 4.29579 97.9825 4.30889 98.0097 4.3351C98.0368 4.3612 98.0504 4.39223 98.0504 4.42821V5.0653C98.0504 5.10128 98.0368 5.13231 98.0097 5.1584C97.9825 5.18461 97.9502 5.19771 97.9129 5.19771H96.2103ZM101.262 2.27159H101.766C101.831 2.27159 101.863 2.29286 101.863 2.33539C101.863 2.48895 101.785 2.61884 101.629 2.72505C101.472 2.83126 101.249 2.88437 100.958 2.88437C100.668 2.88437 100.444 2.83126 100.288 2.72505C100.132 2.61884 100.054 2.48895 100.054 2.33539C100.054 2.29286 100.086 2.27159 100.151 2.27159H100.655C100.706 2.27159 100.738 2.29286 100.752 2.33539C100.772 2.41711 100.837 2.45798 100.946 2.45798C101.054 2.45798 101.128 2.41711 101.165 2.33539C101.185 2.29286 101.218 2.27159 101.262 2.27159ZM99.2994 3.03144H100.247C100.285 3.03144 100.317 3.04449 100.344 3.07058C100.371 3.09667 100.385 3.12771 100.385 3.16369V4.60459L101.496 3.12938C101.547 3.06409 101.614 3.03144 101.695 3.03144H102.521C102.558 3.03144 102.59 3.04449 102.618 3.07058C102.645 3.09667 102.658 3.12771 102.658 3.16369V6.32982C102.658 6.3658 102.645 6.39683 102.618 6.42292C102.59 6.44913 102.558 6.46224 102.521 6.46224H101.573C101.535 6.46224 101.503 6.44913 101.476 6.42292C101.449 6.39683 101.435 6.3658 101.435 6.32982V4.99668L100.324 6.3593C100.269 6.42793 100.201 6.46224 100.12 6.46224H99.2994C99.2619 6.46224 99.2296 6.44913 99.2024 6.42292C99.1752 6.39683 99.1616 6.3658 99.1616 6.32982V3.16369C99.1616 3.12771 99.1752 3.09667 99.2024 3.07058C99.2296 3.04449 99.2619 3.03144 99.2994 3.03144Z"
     fill="black"
     id="path22"
     inkscape:label="Text-Logo" />
</svg>
